<svg id="Layer_2" data-name="Layer 2" xmlns="http://www.w3.org/2000/svg" viewBox="0 0 64 64"><defs><style>.cls-1{fill:#a8e0f9;}.cls-2{fill:#eceded;}.cls-3,.cls-6,.cls-7,.cls-8,.cls-9{fill:none;stroke-linecap:round;stroke-linejoin:round;}.cls-3{stroke:#7a5a57;}.cls-4{fill:#709fd1;}.cls-5{fill:#e6f2fb;}.cls-6,.cls-7{stroke:#709fd1;}.cls-6{stroke-width:0.35px;}.cls-7,.cls-8,.cls-9{stroke-width:0.34px;}.cls-8{stroke:#b4d671;}.cls-9{stroke:#c6b6d9;}.cls-10{fill:#b8bdc9;}.cls-11{fill:#c1b6b3;}.cls-12{fill:#fff;}.cls-13{fill:#a29490;}</style></defs><rect class="cls-1" x="11.01" y="7.96" width="42.44" height="28.61" rx="1.01"/><polyline class="cls-1" points="53.13 36.56 62.26 51.05 2.2 51.05 11.33 36.56"/><polygon class="cls-2" points="37.39 46.08 39.65 49.66 24.81 49.66 27.06 46.08 37.39 46.08"/><circle class="cls-3" cx="32.23" cy="9.15" r="0.08"/><path class="cls-4" d="M62.26,51.05s-.46,2.15-2.4,2.15H4.59c-1.93,0-2.39-2.15-2.39-2.15"/><rect class="cls-5" x="12.6" y="10.39" width="39.26" height="24.23" rx="0.66"/><polyline class="cls-2" points="50.43 36.56 55.19 44.12 9.26 44.12 14.03 36.56"/><rect class="cls-3" x="12.6" y="10.39" width="39.26" height="24.23" rx="0.66"/><rect class="cls-3" x="11.01" y="7.96" width="42.44" height="28.61" rx="1.01"/><polyline class="cls-3" points="53.13 36.56 62.26 51.05 2.2 51.05 11.33 36.56"/><polyline class="cls-3" points="50.43 36.56 55.19 44.12 9.26 44.12 14.03 36.56"/><polygon class="cls-3" points="37.39 46.08 39.65 49.66 24.81 49.66 27.06 46.08 37.39 46.08"/><path class="cls-3" d="M62.26,51.05s-.46,2.15-2.4,2.15H4.59c-1.93,0-2.39-2.15-2.39-2.15"/><line class="cls-6" x1="15.1" y1="12.54" x2="20.2" y2="12.54"/><line class="cls-6" x1="15.23" y1="13.27" x2="16.72" y2="13.27"/><line class="cls-6" x1="16.16" y1="16.2" x2="17.65" y2="16.2"/><line class="cls-6" x1="16.6" y1="16.93" x2="19.9" y2="16.93"/><line class="cls-6" x1="17.36" y1="17.66" x2="20.66" y2="17.66"/><line class="cls-6" x1="17.48" y1="18.39" x2="20.11" y2="18.39"/><line class="cls-6" x1="19.17" y1="19.12" x2="21.8" y2="19.12"/><line class="cls-6" x1="16.72" y1="14" x2="20.2" y2="14"/><line class="cls-6" x1="17.34" y1="14.73" x2="20.82" y2="14.73"/><line class="cls-6" x1="15.6" y1="15.47" x2="17.76" y2="15.47"/><line class="cls-6" x1="16.34" y1="19.85" x2="21.45" y2="19.85"/><line class="cls-6" x1="16.48" y1="20.59" x2="17.96" y2="20.59"/><line class="cls-6" x1="17.41" y1="23.51" x2="18.89" y2="23.51"/><line class="cls-6" x1="17.84" y1="24.24" x2="21.15" y2="24.24"/><line class="cls-6" x1="18.6" y1="24.97" x2="21.91" y2="24.97"/><line class="cls-6" x1="18.73" y1="25.71" x2="21.36" y2="25.71"/><line class="cls-6" x1="20.41" y1="26.44" x2="23.05" y2="26.44"/><line class="cls-6" x1="17.96" y1="21.32" x2="21.45" y2="21.32"/><line class="cls-6" x1="18.59" y1="22.05" x2="22.07" y2="22.05"/><line class="cls-6" x1="16.85" y1="22.78" x2="19" y2="22.78"/><line class="cls-6" x1="16.81" y1="27.17" x2="20.3" y2="27.17"/><line class="cls-6" x1="17.44" y1="27.9" x2="20.92" y2="27.9"/><line class="cls-7" x1="27.79" y1="12.44" x2="30.8" y2="12.44"/><line class="cls-7" x1="29.44" y1="13.35" x2="32.45" y2="13.35"/><line class="cls-7" x1="31.05" y1="14.25" x2="34.06" y2="14.25"/><line class="cls-7" x1="43.23" y1="12.44" x2="46.24" y2="12.44"/><line class="cls-8" x1="47.11" y1="12.44" x2="49.14" y2="12.44"/><line class="cls-8" x1="33.75" y1="13.35" x2="45.15" y2="13.35"/><line class="cls-8" x1="35.73" y1="14.25" x2="37.77" y2="14.25"/><line class="cls-7" x1="42.37" y1="17.12" x2="44.41" y2="17.12"/><line class="cls-7" x1="38.86" y1="14.25" x2="43.23" y2="14.25"/><line class="cls-8" x1="29.05" y1="17.12" x2="31.09" y2="17.12"/><line class="cls-9" x1="32.78" y1="12.44" x2="42.05" y2="12.44"/><line class="cls-7" x1="30.25" y1="15.2" x2="33.26" y2="15.2"/><line class="cls-7" x1="31.05" y1="16.16" x2="41.23" y2="16.16"/><line class="cls-7" x1="29.31" y1="18.07" x2="34.9" y2="18.07"/><line class="cls-7" x1="36.07" y1="18.07" x2="43.74" y2="18.07"/><line class="cls-9" x1="50.45" y1="15.2" x2="48.55" y2="15.2"/><line class="cls-8" x1="47.73" y1="15.2" x2="45.69" y2="15.2"/><line class="cls-9" x1="35.24" y1="15.2" x2="44.51" y2="15.2"/><line class="cls-9" x1="32.37" y1="17.12" x2="41.64" y2="17.12"/><line class="cls-8" x1="42.37" y1="18.84" x2="39.64" y2="18.84"/><line class="cls-8" x1="38.54" y1="18.84" x2="37.42" y2="18.84"/><line class="cls-9" x1="31.05" y1="18.84" x2="36.44" y2="18.84"/><line class="cls-8" x1="31.35" y1="21.71" x2="33.39" y2="21.71"/><line class="cls-7" x1="27.79" y1="19.8" x2="35.56" y2="19.8"/><line class="cls-8" x1="28.91" y1="20.76" x2="42.27" y2="20.76"/><line class="cls-7" x1="31.61" y1="22.67" x2="37.2" y2="22.67"/><line class="cls-7" x1="38.37" y1="22.67" x2="46.04" y2="22.67"/><line class="cls-8" x1="47.52" y1="19.8" x2="46.5" y2="19.8"/><line class="cls-9" x1="37.54" y1="19.8" x2="45.25" y2="19.8"/><line class="cls-8" x1="44.67" y1="23.43" x2="41.94" y2="23.43"/><line class="cls-8" x1="40.84" y1="23.43" x2="39.72" y2="23.43"/><line class="cls-9" x1="33.35" y1="23.43" x2="38.74" y2="23.43"/><rect class="cls-10" x="26.53" y="12.27" width="0.53" height="0.53"/><rect class="cls-10" x="26.53" y="13.26" width="0.53" height="0.53"/><rect class="cls-10" x="26.53" y="14.24" width="0.53" height="0.53"/><rect class="cls-10" x="26.53" y="15.22" width="0.53" height="0.53"/><rect class="cls-10" x="26.53" y="16.2" width="0.53" height="0.53"/><rect class="cls-10" x="26.53" y="17.18" width="0.53" height="0.53"/><rect class="cls-10" x="26.53" y="18.16" width="0.53" height="0.53"/><rect class="cls-10" x="26.53" y="19.14" width="0.53" height="0.53"/><rect class="cls-10" x="26.53" y="20.13" width="0.53" height="0.53"/><rect class="cls-10" x="26.53" y="21.11" width="0.53" height="0.53"/><rect class="cls-10" x="26.53" y="22.09" width="0.53" height="0.53"/><rect class="cls-10" x="26.53" y="23.07" width="0.53" height="0.53"/><rect class="cls-10" x="26.53" y="24.05" width="0.53" height="0.53"/><rect class="cls-10" x="26.53" y="25.03" width="0.53" height="0.53"/><rect class="cls-10" x="26.53" y="26.01" width="0.53" height="0.53"/><rect class="cls-10" x="26.53" y="27" width="0.53" height="0.53"/><rect class="cls-10" x="26.53" y="27.98" width="0.53" height="0.53"/><rect class="cls-10" x="13.91" y="12.27" width="0.53" height="0.53"/><rect class="cls-10" x="13.91" y="13.26" width="0.53" height="0.53"/><rect class="cls-10" x="13.91" y="14.24" width="0.53" height="0.53"/><rect class="cls-10" x="13.91" y="15.22" width="0.53" height="0.53"/><rect class="cls-10" x="13.91" y="16.2" width="0.53" height="0.53"/><rect class="cls-10" x="13.91" y="17.18" width="0.53" height="0.53"/><rect class="cls-10" x="13.91" y="18.16" width="0.53" height="0.53"/><rect class="cls-10" x="13.91" y="19.14" width="0.53" height="0.53"/><rect class="cls-10" x="13.91" y="20.13" width="0.53" height="0.53"/><rect class="cls-10" x="13.91" y="21.11" width="0.53" height="0.53"/><rect class="cls-10" x="13.91" y="22.09" width="0.53" height="0.53"/><rect class="cls-10" x="13.91" y="23.07" width="0.53" height="0.53"/><rect class="cls-10" x="13.91" y="24.05" width="0.53" height="0.53"/><rect class="cls-10" x="13.91" y="25.03" width="0.53" height="0.53"/><rect class="cls-10" x="13.91" y="26.01" width="0.53" height="0.53"/><rect class="cls-10" x="13.91" y="27" width="0.53" height="0.53"/><rect class="cls-10" x="13.91" y="27.98" width="0.53" height="0.53"/><path class="cls-11" d="M52.31,36.36C50.76,40,48,42.54,40.55,41.62c0,0-7-.43-9.68,2s-2.4,3.52-1.78,4.29a2.88,2.88,0,0,0,4.18,0c2.32-2.32,9.23-1.54,9.23-1.54,7.42.92,10.21-1.65,11.76-5.26a4.12,4.12,0,0,0-1.68-5.37"/><path class="cls-11" d="M18.89,47.53c2.7.71,7,1.23,9.81-.39,0,0,24-3,23.88-11.38,0,0,1-1.81-1.11-7.94-4.89-10.3-17.26-7.37-17.26-7.37s-5.91.83-8.06,5.4l-.22.37a4,4,0,0,1,1,.35,4,4,0,0,0-1-.35l-.36.59.36-.59a4.3,4.3,0,0,0-4.35,1.69l-.34.39a12.53,12.53,0,0,1,2.84.43,12.53,12.53,0,0,0-2.84-.43l-.88,1,.88-1c-3.29-.15-8.45.83-9.87,8-.81,4.1,1.41,5.72,1.41,5.72l.81,2.21Z"/><path class="cls-12" d="M17.26,46.68c.6,1.34,4,1.86,3.56,1.77A2.84,2.84,0,0,0,21,43.76a29.64,29.64,0,0,0-7.36.5l.14.37c-.13,0-.33,2.82,3.53,2Z"/><path class="cls-11" d="M11.21,37.6A26.26,26.26,0,0,1,7.4,40.05c-.75.17-1.17.78-.64,1.06s4.71,2.55,5.76.69"/><path class="cls-13" d="M19.51,42.53s-6.06,3.86-7.65,1.13c-.32-.92,3.61-4.25,3.61-4.25a2.4,2.4,0,0,1,3.37,0A2.35,2.35,0,0,1,19.51,42.53Z"/><path class="cls-13" d="M32.94,26.22a1.5,1.5,0,0,0,1.45,1.12,1.31,1.31,0,0,0,.39-.05,1.5,1.5,0,0,0,1.07-1.83A9.77,9.77,0,0,0,33,20.72a13.51,13.51,0,0,0-3.2,1.33A6.87,6.87,0,0,1,32.94,26.22Z"/><path class="cls-13" d="M35.14,20.28a6.86,6.86,0,0,1,2.39,4.09A1.5,1.5,0,0,0,39,25.6a1.24,1.24,0,0,0,.27,0,1.5,1.5,0,0,0,1.21-1.75A9.75,9.75,0,0,0,39,20.08,19.87,19.87,0,0,0,35.14,20.28Z"/><path class="cls-13" d="M42.2,23.62A1.5,1.5,0,0,0,43.69,25h.16a1.5,1.5,0,0,0,1.33-1.65,9.82,9.82,0,0,0-.41-2,16,16,0,0,0-3.86-1A6.85,6.85,0,0,1,42.2,23.62Z"/><path class="cls-3" d="M52.31,36.15c-1.55,3.61-4.33,6.19-11.76,5.26,0,0-7-.43-9.68,2s-2.4,3.52-1.78,4.29a2.89,2.89,0,0,0,4.18.06c2.32-2.32,9.23-1.55,9.23-1.55,7.42.93,10.21-1.65,11.76-5.26a4.12,4.12,0,0,0-1.68-5.37"/><path class="cls-3" d="M52.58,35.55s1-1.8-1.11-7.94c-4.89-10.3-17.26-7.37-17.26-7.37s-5.91.84-8.06,5.41"/><path class="cls-3" d="M27,26.36a4.31,4.31,0,0,0-5.38,1.34"/><path class="cls-3" d="M39.67,26.4S32.67,28,34,35c.75,2.58,3.58,3.56,3.37,3.58,0,0-8.35-.78-5.29,3.76"/><path class="cls-3" d="M24.08,28.52s-10.58-3.21-12.71,7.6c-.81,4.1,1.41,5.72,1.41,5.72"/><path class="cls-3" d="M11.21,37.39A26.26,26.26,0,0,1,7.4,39.84c-.75.18-1.17.78-.64,1.06s4.71,2.55,5.76.69"/><path class="cls-3" d="M19.51,42.32s-6.06,3.86-7.65,1.13c-.32-.92,3.61-4.25,3.61-4.25"/><path class="cls-3" d="M26.77,40.42a2.21,2.21,0,0,0-1.31,2.71c.33,1.56-5.21-.66-7.27.59s-1.17,3.18.74,4a12.25,12.25,0,0,0,9.77-.78"/><path class="cls-3" d="M13.73,44.43c-.13,0-.43,2.72,3.51,2.17"/></svg>